<svg xmlns="http://www.w3.org/2000/svg" viewBox="0 0 1024 1024" width="1024" height="1024">
  <title>Martin M Logo</title>
  <desc>Stylized handwritten M logo on transparent background</desc>
  <g fill="none" stroke="#000000" stroke-width="72" stroke-linecap="round" stroke-linejoin="round">
    <path
      d="M 245 685
         C 210 610, 245 535, 325 455
         C 395 385, 470 330, 540 295
         C 565 283, 585 286, 592 303
         C 600 323, 588 351, 560 401
         C 528 459, 494 527, 472 593
         C 456 642, 452 690, 470 722"
    />
    <path
      d="M 512 542
         C 562 486, 620 412, 693 318
         C 720 283, 744 276, 758 288
         C 771 301, 769 326, 751 364
         C 718 435, 680 526, 654 607
         C 631 679, 629 747, 666 781"
    />
  </g>
</svg>
